Coordinates
version=1
nRows=26
nColumns=22
inDegrees=yes

Units are S.I. units (second, meters, Newtons, ...)
If the header above contains a line with 'inDegrees', this indicates whether rotational values are in degrees (yes) or radians (no).

endheader
time	pelvis_tilt	pelvis_list	pelvis_rotation	pelvis_tx	pelvis_ty	pelvis_tz	hip_flexion_r	hip_adduction_r	hip_rotation_r	knee_angle_r	ankle_angle_r	subtalar_angle_r	hip_flexion_l	hip_adduction_l	hip_rotation_l	knee_angle_l	ankle_angle_l	subtalar_angle_l	lumbar_extension	lumbar_bending	lumbar_rotation
      1.89000000	     -5.45852977	     -7.71395810	      2.72452177	     -1.03871781	      0.96797621	     -0.22421778	      6.85992046	     10.64385060	     -3.70684629	    -15.48059793	     12.70270307	     -1.90776149	     15.88459223	     -9.75334159	      4.52000387	    -29.95992261	     15.87401946	      3.63437984	     -0.77299190	      8.51070754	     -7.24814656
      1.90000000	     -5.29774497	     -7.66654002	      2.67260930	     -1.03677013	      0.96788952	     -0.22352258	      6.54367511	     10.65678726	     -3.63169673	    -15.46769660	     12.83175940	     -1.92724015	     16.59708929	     -9.66115595	      4.59782529	    -31.38969644	     15.92303874	      3.73976725	     -0.98647084	      8.49146650	     -7.11987292
      1.91000000	     -5.16881140	     -7.58147238	      2.60918726	     -1.03475721	      0.96781544	     -0.22288103	      6.25726697	     10.62427678	     -3.54802142	    -15.46230679	     12.97564478	     -1.94964255	     17.31034434	     -9.51749537	      4.66516292	    -32.67825149	     15.94612972	      3.88932735	     -1.16303236	      8.42719984	     -6.98265813
      1.92000000	     -5.04656449	     -7.46794301	      2.52899332	     -1.03266186	      0.96778668	     -0.22226789	      5.96636499	     10.56025495	     -3.44241979	    -15.45127741	     13.11460046	     -1.96778793	     17.99001062	     -9.34251970	      4.70112388	    -33.80463018	     15.96998806	      4.04388854	     -1.33168922	      8.32751074	     -6.83258618
      1.93000000	     -4.88112233	     -7.32280225	      2.45654548	     -1.03040558	      0.96787042	     -0.22173555	      5.59386648	     10.45874200	     -3.34849682	    -15.39666656	     13.23962635	     -1.97901908	     18.56883393	     -9.13176734	      4.71227239	    -34.73736379	     15.98185172	      4.05441434	     -1.53881261	      8.19484087	     -6.69755686
      1.94000000	     -4.82805168	     -7.18902329	      2.34266428	     -1.02819687	      0.96782348	     -0.22115237	      5.37248629	     10.36767461	     -3.21078210	    -15.39721019	     13.36631321	     -1.98892908	     19.26400889	     -8.93981537	      4.69194244	    -35.54474616	     16.02786758	      4.30906999	     -1.63202031	      8.06236469	     -6.51736849
      1.95000000	     -4.70304804	     -7.04688519	      2.25498924	     -1.02577987	      0.96790183	     -0.22065303	      5.02362730	     10.26541962	     -3.10710003	    -15.32675168	     13.48050562	     -1.99891771	     19.83291191	     -8.74148659	      4.65524396	    -36.15578392	     16.04929108	      4.31040136	     -1.78787709	      7.92470564	     -6.37090326
      1.96000000	     -4.63697706	     -6.88260837	      2.10426426	     -1.02337630	      0.96793074	     -0.22009419	      4.76111567	     10.14337885	     -2.90455378	    -15.31039582	     13.60820323	     -2.01246395	     20.42844433	     -8.53878776	      4.56371913	    -36.60552934	     16.03945457	      4.36515881	     -1.89855097	      7.75444831	     -6.14782169
      1.97000000	     -4.56604287	     -6.73247392	      1.97714731	     -1.02083541	      0.96795996	     -0.21958038	      4.47270396	     10.03043202	     -2.76123409	    -15.26380839	     13.70856130	     -2.02349664	     21.00279967	     -8.35714804	      4.46441940	    -36.91093582	     16.00234075	      4.39745930	     -2.00111461	      7.59760841	     -5.95482446
      1.98000000	     -4.50058348	     -6.58664078	      1.83944513	     -1.01820959	      0.96797442	     -0.21906452	      4.18666872	      9.92149305	     -2.60746322	    -15.22047380	     13.81063115	     -2.03858766	     21.56025070	     -8.19300592	      4.34461238	    -37.07792358	     15.91553338	      4.39233582	     -2.09786087	      7.44048615	     -5.74793934
      1.99000000	     -4.43074028	     -6.46123773	      1.71792990	     -1.01551730	      0.96797122	     -0.21858243	      3.89058826	      9.83442992	     -2.44267195	    -15.17202575	     13.91603523	     -2.05597306	     22.10724422	     -8.04882234	      4.25237635	    -37.13015769	     15.74470525	      4.35250061	     -2.20020063	      7.30580655	     -5.57035875
      2.00000000	     -4.36990944	     -6.32875689	      1.57155101	     -1.01272890	      0.96793577	     -0.21810309	      3.60477520	      9.73676303	     -2.26386819	    -15.13878071	     14.02115847	     -2.07913367	     22.63952622	     -7.91264860	      4.12584617	    -37.06786923	     15.50579249	      4.24741627	     -2.29483647	      7.16194295	     -5.35105841
      2.01000000	     -4.31092263	     -6.19706191	      1.41304855	     -1.00980439	      0.96787015	     -0.21762107	      3.31209549	      9.63636433	     -2.09716319	    -15.10490147	     14.14694058	     -2.11383118	     23.14181930	     -7.79041123	      3.98161883	    -36.88460348	     15.20087253	      3.98356062	     -2.38027052	      7.01279093	     -5.10177077
      2.02000000	     -4.24913708	     -6.08446406	      1.27253072	     -1.00683847	      0.96776767	     -0.21719997	      3.01827098	      9.55336231	     -1.92509116	    -15.07508024	     14.27240400	     -2.14739402	     23.64524705	     -7.67519621	      3.88924501	    -36.63021841	     14.78927070	      3.69329207	     -2.47507828	      6.88745812	     -4.88980052
      2.03000000	     -4.18357273	     -5.97964633	      1.13463935	     -1.00379296	      0.96762357	     -0.21681520	      2.72549778	      9.47475519	     -1.75175506	    -15.06406692	     14.41954306	     -2.18392059	     24.13409419	     -7.56439014	      3.82301680	    -36.29905659	     14.30538027	      3.34178873	     -2.57341025	      6.77003563	     -4.67900144
      2.04000000	     -4.12199454	     -5.87974610	      1.00547694	     -1.00065432	      0.96743608	     -0.21648965	      2.42666919	      9.39585252	     -1.58825217	    -15.04265844	     14.55948967	     -2.21583253	     24.61883599	     -7.45131648	      3.77925563	    -35.90083438	     13.74988364	      2.94923132	     -2.66658592	      6.65704342	     -4.48488240
      2.05000000	     -4.08094146	     -5.76289436	      0.87028579	     -0.99743509	      0.96719201	     -0.21622136	      2.14715796	      9.29170882	     -1.42378219	    -15.02615522	     14.69742381	     -2.24206407	     25.10625462	     -7.31246869	      3.76270098	    -35.43312812	     13.16374885	      2.70903611	     -2.73681594	      6.52513406	     -4.26649232
      2.06000000	     -4.01832235	     -5.66934317	      0.74460195	     -0.99412966	      0.96692495	     -0.21601460	      1.84555524	      9.20858631	     -1.26176450	    -15.02243415	     14.88105524	     -2.26634832	     25.55212815	     -7.18778010	      3.78773993	    -34.88993913	     12.51994318	      2.26344013	     -2.83122413	      6.42201163	     -4.08630421
      2.07000000	     -3.97651887	     -5.56141451	      0.61867139	     -0.99072936	      0.96660166	     -0.21586742	      1.55813932	      9.10268605	     -1.10864186	    -15.01500571	     15.06010616	     -2.28088196	     25.99590557	     -7.03891980	      3.84928122	    -34.28022289	     11.86688284	      1.96054571	     -2.90033709	      6.30085230	     -3.90195393
      2.08000000	     -3.93899943	     -5.44892000	      0.49890116	     -0.98724073	      0.96623481	     -0.21579445	      1.26993672	      8.98537461	     -0.96564689	    -15.00790882	     15.24731732	     -2.28658361	     26.42063767	     -6.87462946	      3.95194393	    -33.60518878	     11.21487452	      1.69629778	     -2.96317184	      6.17572720	     -3.72484047
      2.09000000	     -3.90270399	     -5.34203909	      0.38702869	     -0.98365191	      0.96582733	     -0.21580019	      0.96936000	      8.86762790	     -0.82836444	    -14.98729914	     15.44347663	     -2.27544574	     26.82395211	     -6.70731682	      4.09514807	    -32.87221507	     10.55864590	      1.42016581	     -3.02271866	      6.06030971	     -3.56172404
      2.10000000	     -3.88147374	     -5.22308904	      0.28296099	     -0.97996260	      0.96536305	     -0.21585361	      0.68432326	      8.73214125	     -0.71278730	    -14.97656201	     15.63829103	     -2.26767959	     27.21394216	     -6.52414018	      4.27549928	    -32.07761966	      9.93040315	      1.27302444	     -3.06043786	      5.92530377	     -3.40758938
      2.11000000	     -3.84781371	     -5.12076809	      0.18202517	     -0.97618088	      0.96487443	     -0.21597048	      0.37127912	      8.61040358	     -0.58495125	    -14.95000824	     15.85511549	     -2.22401291	     27.56264855	     -6.35734409	      4.48769839	    -31.22586668	      9.30264597	      1.01815962	     -3.11423733	      5.81258423	     -3.26501103
      2.12000000	     -3.85035907	     -5.03179277	      0.09787653	     -0.97230607	      0.96429384	     -0.21611142	      0.09345146	      8.50310626	     -0.47424933	    -14.92479128	     16.03579555	     -2.22294483	     27.93758008	     -6.20749745	      4.73288973	    -30.34529341	      8.70784582	      1.00026270	     -3.12140268	      5.70732746	     -3.15978471
      2.13000000	     -3.80381694	     -4.91257327	      0.00008774	     -0.96829143	      0.96373409	     -0.21630632	     -0.22743696	      8.35436553	     -0.37749574	    -14.93684059	     16.29166881	     -2.15500044	     28.20031558	     -6.04053096	      4.97675069	    -29.38637282	      8.14485821	      0.73509971	     -3.18349509	      5.56780041	     -3.02024090
      2.14000000	     -3.81431623	     -4.83831977	     -0.07355355	     -0.96419495	      0.96304750	     -0.21651390	     -0.50143012	      8.25763563	     -0.28918293	    -14.92671189	     16.48094418	     -2.15150472	     28.53342831	     -5.92737177	      5.23864787	    -28.43750763	      7.60560894	      0.71838882	     -3.17654034	      5.47210351	     -2.92574191
